STARTFONT 2.1
FONT bigtime
SIZE 8 75 75
FONTBOUNDINGBOX 5 7 0 0
CHARS 11

STARTCHAR zero
ENCODING 48
SWIDTH 500 0
DWIDTH 6 0
BBX 5 7 0 0
BITMAP
F8
88
88
88
88
88
F8
ENDCHAR

STARTCHAR one
ENCODING 49
SWIDTH 500 0
DWIDTH 6 0
BBX 5 7 0 0
BITMAP
20
20
20
20
20
20
20
ENDCHAR

STARTCHAR two
ENCODING 50
SWIDTH 500 0
DWIDTH 6 0
BBX 5 7 0 0
BITMAP
F0
20
20
F0
80
80
F0
ENDCHAR

STARTCHAR three
ENCODING 51
SWIDTH 500 0
DWIDTH 6 0
BBX 5 7 0 0
BITMAP
F0
20
20
F0
20
20
F0
ENDCHAR

STARTCHAR four
ENCODING 52
SWIDTH 500 0
DWIDTH 6 0
BBX 5 7 0 0
BITMAP
90
90
90
F0
20
20
20
ENDCHAR

STARTCHAR five
ENCODING 53
SWIDTH 500 0
DWIDTH 6 0
BBX 5 7 0 0
BITMAP
F0
80
80
F0
20
20
F0
ENDCHAR

STARTCHAR six
ENCODING 54
SWIDTH 500 0
DWIDTH 6 0
BBX 5 7 0 0
BITMAP
F0
80
80
F0
90
90
F0
ENDCHAR

STARTCHAR seven
ENCODING 55
SWIDTH 500 0
DWIDTH 6 0
BBX 5 7 0 0
BITMAP
F0
20
20
40
80
80
80
ENDCHAR

STARTCHAR eight
ENCODING 56
SWIDTH 500 0
DWIDTH 6 0
BBX 5 7 0 0
BITMAP
F0
90
90
F0
90
90
F0
ENDCHAR

STARTCHAR nine
ENCODING 57
SWIDTH 500 0
DWIDTH 6 0
BBX 5 7 0 0
BITMAP
F0
90
90
F0
20
20
F0
ENDCHAR

STARTCHAR colon
ENCODING 58
SWIDTH 500 0
DWIDTH 6 0
BBX 5 7 0 0
BITMAP
00
20
20
00
20
20
00
ENDCHAR

ENDFONT
